<svg width="19" height="18" viewBox="0 0 19 18" fill="none" xmlns="http://www.w3.org/2000/svg">
<g clip-path="url(#clip0_1_94)">
<path d="M17.9785 3.02734V14.9609C17.9785 16.9727 16.9629 17.9785 14.9121 17.9785H3.06641C1.02539 17.9785 0 16.9727 0 14.9609V3.02734C0 1.01562 1.02539 0 3.06641 0H14.9121C16.9629 0 17.9785 1.01562 17.9785 3.02734ZM6.95312 3.70117C5.97656 3.70117 5.46875 4.21875 5.46875 5.19531V13.6719C5.46875 14.082 5.68359 14.3262 6.01562 14.3262C6.2793 14.3262 6.42578 14.1699 6.89453 13.7109L8.94531 11.6992C8.97461 11.6699 9.01367 11.6699 9.04297 11.6992L11.1035 13.7109C11.5625 14.1699 11.709 14.3262 11.9727 14.3262C12.3145 14.3262 12.5293 14.082 12.5293 13.6719V5.19531C12.5293 4.21875 12.0215 3.70117 11.0352 3.70117H6.95312Z" fill="black"/>
</g>
<defs>
<clipPath id="clip0_1_94">
<rect width="18.3398" height="17.9785" fill="white"/>
</clipPath>
</defs>
</svg>
