<svg width="19" height="22" viewBox="0 0 19 22" fill="none" xmlns="http://www.w3.org/2000/svg">
<g clip-path="url(#clip0_1_110)">
<path d="M15.9159 11.1918L8.73817 18.3695C6.87294 20.2445 4.36317 20.059 2.76161 18.4379C1.15028 16.8363 0.964736 14.3461 2.82997 12.4711L12.6249 2.68592C13.7479 1.56287 15.3983 1.40662 16.4725 2.47108C17.537 3.55506 17.3808 5.19569 16.2675 6.31873L6.69716 15.8891C6.21864 16.3871 5.63271 16.2406 5.30067 15.9086C4.96864 15.5668 4.83192 15.0004 5.31044 14.5023L11.9999 7.8324C12.2929 7.52967 12.3124 7.09998 12.0292 6.81678C11.746 6.54334 11.3163 6.56287 11.0233 6.85584L4.31435 13.5648C3.31825 14.5609 3.35732 16.0844 4.23622 16.9633C5.19325 17.9203 6.63857 17.9008 7.64442 16.8949L17.2538 7.28553C19.08 5.45936 19.0018 3.05701 17.41 1.46522C15.8573 -0.0875133 13.4159 -0.204701 11.5897 1.62147L1.74599 11.475C-0.666123 13.8871 -0.480576 17.3344 1.69716 19.5121C3.87489 21.6801 7.32216 21.8656 9.73427 19.4633L16.9608 12.2367C17.244 11.9535 17.244 11.4359 16.9511 11.1723C16.6679 10.8695 16.2089 10.9086 15.9159 11.1918Z" fill="black"/>
</g>
<defs>
<clipPath id="clip0_1_110">
<rect width="18.9705" height="21.2019" fill="white"/>
</clipPath>
</defs>
</svg>
